<?xml version="1.0" encoding="UTF-8"?><svg xmlns="http://www.w3.org/2000/svg" xmlns:xlink="http://www.w3.org/1999/xlink" width="375pt" zoomAndPan="magnify" viewBox="0 0 375 374.999991" height="374.999991pt" preserveAspectRatio="xMidYMid meet" version="1.2"><defs><g/><clipPath xml:id="clip1" id="clip1"><path d="M 154 148 L 256 148 L 256 201 L 154 201 Z M 154 148 "/></clipPath><clipPath xml:id="clip2" id="clip2"><path d="M 158.601562 133.617188 L 349.101562 184.777344 L 312.140625 322.402344 L 121.640625 271.238281 Z M 158.601562 133.617188 "/></clipPath><clipPath xml:id="clip3" id="clip3"><path d="M 348.929688 184.734375 L 158.429688 133.570312 L 121.46875 271.195312 L 311.96875 322.355469 Z M 348.929688 184.734375 "/></clipPath><clipPath xml:id="clip4" id="clip4"><path d="M 348.929688 184.734375 L 158.429688 133.570312 L 121.46875 271.195312 L 311.96875 322.355469 Z M 348.929688 184.734375 "/></clipPath><clipPath xml:id="clip5" id="clip5"><path d="M 185 166 L 278 166 L 278 226 L 185 226 Z M 185 166 "/></clipPath><clipPath xml:id="clip6" id="clip6"><path d="M 158.601562 133.617188 L 349.101562 184.777344 L 312.140625 322.402344 L 121.640625 271.238281 Z M 158.601562 133.617188 "/></clipPath><clipPath xml:id="clip7" id="clip7"><path d="M 348.929688 184.734375 L 158.429688 133.570312 L 121.46875 271.195312 L 311.96875 322.355469 Z M 348.929688 184.734375 "/></clipPath><clipPath xml:id="clip8" id="clip8"><path d="M 348.929688 184.734375 L 158.429688 133.570312 L 121.46875 271.195312 L 311.96875 322.355469 Z M 348.929688 184.734375 "/></clipPath><clipPath xml:id="clip9" id="clip9"><path d="M 185 150 L 288 150 L 288 176 L 185 176 Z M 185 150 "/></clipPath><clipPath xml:id="clip10" id="clip10"><path d="M 158.601562 133.617188 L 349.101562 184.777344 L 312.140625 322.402344 L 121.640625 271.238281 Z M 158.601562 133.617188 "/></clipPath><clipPath xml:id="clip11" id="clip11"><path d="M 348.929688 184.734375 L 158.429688 133.570312 L 121.46875 271.195312 L 311.96875 322.355469 Z M 348.929688 184.734375 "/></clipPath><clipPath xml:id="clip12" id="clip12"><path d="M 348.929688 184.734375 L 158.429688 133.570312 L 121.46875 271.195312 L 311.96875 322.355469 Z M 348.929688 184.734375 "/></clipPath><clipPath xml:id="clip13" id="clip13"><path d="M 260 168 L 288 168 L 288 208 L 260 208 Z M 260 168 "/></clipPath><clipPath xml:id="clip14" id="clip14"><path d="M 158.601562 133.617188 L 349.101562 184.777344 L 312.140625 322.402344 L 121.640625 271.238281 Z M 158.601562 133.617188 "/></clipPath><clipPath xml:id="clip15" id="clip15"><path d="M 348.929688 184.734375 L 158.429688 133.570312 L 121.46875 271.195312 L 311.96875 322.355469 Z M 348.929688 184.734375 "/></clipPath><clipPath xml:id="clip16" id="clip16"><path d="M 348.929688 184.734375 L 158.429688 133.570312 L 121.46875 271.195312 L 311.96875 322.355469 Z M 348.929688 184.734375 "/></clipPath><clipPath xml:id="clip17" id="clip17"><path d="M 230 225 L 256 225 L 256 266 L 230 266 Z M 230 225 "/></clipPath><clipPath xml:id="clip18" id="clip18"><path d="M 158.601562 133.617188 L 349.101562 184.777344 L 312.140625 322.402344 L 121.640625 271.238281 Z M 158.601562 133.617188 "/></clipPath><clipPath xml:id="clip19" id="clip19"><path d="M 348.929688 184.734375 L 158.429688 133.570312 L 121.46875 271.195312 L 311.96875 322.355469 Z M 348.929688 184.734375 "/></clipPath><clipPath xml:id="clip20" id="clip20"><path d="M 348.929688 184.734375 L 158.429688 133.570312 L 121.46875 271.195312 L 311.96875 322.355469 Z M 348.929688 184.734375 "/></clipPath><clipPath xml:id="clip21" id="clip21"><path d="M 198 225 L 235 225 L 235 262 L 198 262 Z M 198 225 "/></clipPath><clipPath xml:id="clip22" id="clip22"><path d="M 158.601562 133.617188 L 349.101562 184.777344 L 312.140625 322.402344 L 121.640625 271.238281 Z M 158.601562 133.617188 "/></clipPath><clipPath xml:id="clip23" id="clip23"><path d="M 348.929688 184.734375 L 158.429688 133.570312 L 121.46875 271.195312 L 311.96875 322.355469 Z M 348.929688 184.734375 "/></clipPath><clipPath xml:id="clip24" id="clip24"><path d="M 348.929688 184.734375 L 158.429688 133.570312 L 121.46875 271.195312 L 311.96875 322.355469 Z M 348.929688 184.734375 "/></clipPath><clipPath xml:id="clip25" id="clip25"><path d="M 167 258 L 232 258 L 232 289 L 167 289 Z M 167 258 "/></clipPath><clipPath xml:id="clip26" id="clip26"><path d="M 158.601562 133.617188 L 349.101562 184.777344 L 312.140625 322.402344 L 121.640625 271.238281 Z M 158.601562 133.617188 "/></clipPath><clipPath xml:id="clip27" id="clip27"><path d="M 348.929688 184.734375 L 158.429688 133.570312 L 121.46875 271.195312 L 311.96875 322.355469 Z M 348.929688 184.734375 "/></clipPath><clipPath xml:id="clip28" id="clip28"><path d="M 348.929688 184.734375 L 158.429688 133.570312 L 121.46875 271.195312 L 311.96875 322.355469 Z M 348.929688 184.734375 "/></clipPath><clipPath xml:id="clip29" id="clip29"><path d="M 277 207 L 331 207 L 331 256 L 277 256 Z M 277 207 "/></clipPath><clipPath xml:id="clip30" id="clip30"><path d="M 158.601562 133.617188 L 349.101562 184.777344 L 312.140625 322.402344 L 121.640625 271.238281 Z M 158.601562 133.617188 "/></clipPath><clipPath xml:id="clip31" id="clip31"><path d="M 348.929688 184.734375 L 158.429688 133.570312 L 121.46875 271.195312 L 311.96875 322.355469 Z M 348.929688 184.734375 "/></clipPath><clipPath xml:id="clip32" id="clip32"><path d="M 348.929688 184.734375 L 158.429688 133.570312 L 121.46875 271.195312 L 311.96875 322.355469 Z M 348.929688 184.734375 "/></clipPath><clipPath xml:id="clip33" id="clip33"><path d="M 277 197 L 338 197 L 338 216 L 277 216 Z M 277 197 "/></clipPath><clipPath xml:id="clip34" id="clip34"><path d="M 158.601562 133.617188 L 349.101562 184.777344 L 312.140625 322.402344 L 121.640625 271.238281 Z M 158.601562 133.617188 "/></clipPath><clipPath xml:id="clip35" id="clip35"><path d="M 348.929688 184.734375 L 158.429688 133.570312 L 121.46875 271.195312 L 311.96875 322.355469 Z M 348.929688 184.734375 "/></clipPath><clipPath xml:id="clip36" id="clip36"><path d="M 348.929688 184.734375 L 158.429688 133.570312 L 121.46875 271.195312 L 311.96875 322.355469 Z M 348.929688 184.734375 "/></clipPath><clipPath xml:id="clip37" id="clip37"><path d="M 333 209 L 341 209 L 341 217 L 333 217 Z M 333 209 "/></clipPath><clipPath xml:id="clip38" id="clip38"><path d="M 158.601562 133.617188 L 349.101562 184.777344 L 312.140625 322.402344 L 121.640625 271.238281 Z M 158.601562 133.617188 "/></clipPath><clipPath xml:id="clip39" id="clip39"><path d="M 348.929688 184.734375 L 158.429688 133.570312 L 121.46875 271.195312 L 311.96875 322.355469 Z M 348.929688 184.734375 "/></clipPath><clipPath xml:id="clip40" id="clip40"><path d="M 348.929688 184.734375 L 158.429688 133.570312 L 121.46875 271.195312 L 311.96875 322.355469 Z M 348.929688 184.734375 "/></clipPath><clipPath xml:id="clip41" id="clip41"><path d="M 234 207 L 293 207 L 293 262 L 234 262 Z M 234 207 "/></clipPath><clipPath xml:id="clip42" id="clip42"><path d="M 158.601562 133.617188 L 349.101562 184.777344 L 312.140625 322.402344 L 121.640625 271.238281 Z M 158.601562 133.617188 "/></clipPath><clipPath xml:id="clip43" id="clip43"><path d="M 348.929688 184.734375 L 158.429688 133.570312 L 121.46875 271.195312 L 311.96875 322.355469 Z M 348.929688 184.734375 "/></clipPath><clipPath xml:id="clip44" id="clip44"><path d="M 348.929688 184.734375 L 158.429688 133.570312 L 121.46875 271.195312 L 311.96875 322.355469 Z M 348.929688 184.734375 "/></clipPath></defs><g xml:id="surface1" id="surface1"><g clip-rule="nonzero" clip-path="url(#clip1)"><g clip-rule="nonzero" clip-path="url(#clip2)"><g clip-rule="nonzero" clip-path="url(#clip3)"><g clip-rule="nonzero" clip-path="url(#clip4)"><path style=" stroke:none;fill-rule:evenodd;fill:rgb(31.759644%,68.238831%,88.62915%);fill-opacity:1;" d="M 185.226562 200.375 L 154.605469 148.238281 L 255.90625 167.042969 Z M 185.226562 200.375 "/></g></g></g></g><g clip-rule="nonzero" clip-path="url(#clip5)"><g clip-rule="nonzero" clip-path="url(#clip6)"><g clip-rule="nonzero" clip-path="url(#clip7)"><g clip-rule="nonzero" clip-path="url(#clip8)"><path style=" stroke:none;fill-rule:evenodd;fill:rgb(0%,45.878601%,71.369934%);fill-opacity:1;" d="M 255.757812 166.761719 L 277.003906 207.402344 L 234.988281 225.230469 L 185.226562 200.375 L 255.605469 167.183594 Z M 255.757812 166.761719 "/></g></g></g></g><g clip-rule="nonzero" clip-path="url(#clip9)"><g clip-rule="nonzero" clip-path="url(#clip10)"><g clip-rule="nonzero" clip-path="url(#clip11)"><g clip-rule="nonzero" clip-path="url(#clip12)"><path style=" stroke:none;fill-rule:evenodd;fill:rgb(55.288696%,81.17981%,95.289612%);fill-opacity:1;" d="M 260.363281 175.574219 L 255.90625 167.042969 L 192.246094 155.234375 L 185.160156 150.132812 L 287.515625 168.515625 Z M 260.363281 175.574219 "/></g></g></g></g><g clip-rule="nonzero" clip-path="url(#clip13)"><g clip-rule="nonzero" clip-path="url(#clip14)"><g clip-rule="nonzero" clip-path="url(#clip15)"><g clip-rule="nonzero" clip-path="url(#clip16)"><path style=" stroke:none;fill-rule:evenodd;fill:rgb(33.729553%,65.489197%,69.799805%);fill-opacity:1;" d="M 287.585938 168.257812 L 277.003906 207.402344 L 268.835938 191.777344 L 260.363281 175.574219 L 287.34375 168.5625 Z M 287.585938 168.257812 "/></g></g></g></g><g clip-rule="nonzero" clip-path="url(#clip17)"><g clip-rule="nonzero" clip-path="url(#clip18)"><g clip-rule="nonzero" clip-path="url(#clip19)"><g clip-rule="nonzero" clip-path="url(#clip20)"><path style=" stroke:none;fill-rule:evenodd;fill:rgb(0%,54.508972%,82.348633%);fill-opacity:1;" d="M 234.988281 225.230469 L 255.171875 261.078125 L 255.003906 261.242188 L 230.902344 265.359375 Z M 234.988281 225.230469 "/></g></g></g></g><g clip-rule="nonzero" clip-path="url(#clip21)"><g clip-rule="nonzero" clip-path="url(#clip22)"><g clip-rule="nonzero" clip-path="url(#clip23)"><g clip-rule="nonzero" clip-path="url(#clip24)"><path style=" stroke:none;fill-rule:evenodd;fill:rgb(0%,33.329773%,52.938843%);fill-opacity:1;" d="M 231.5625 258.875 L 198.917969 261.808594 L 234.988281 225.230469 Z M 231.5625 258.875 "/></g></g></g></g><g clip-rule="nonzero" clip-path="url(#clip25)"><g clip-rule="nonzero" clip-path="url(#clip26)"><g clip-rule="nonzero" clip-path="url(#clip27)"><g clip-rule="nonzero" clip-path="url(#clip28)"><path style=" stroke:none;fill-rule:evenodd;fill:rgb(33.729553%,65.489197%,69.799805%);fill-opacity:1;" d="M 187.488281 288.960938 L 167.273438 264.628906 L 181.492188 263.375 L 231.5625 258.875 L 230.902344 265.359375 Z M 187.488281 288.960938 "/></g></g></g></g><g clip-rule="nonzero" clip-path="url(#clip29)"><g clip-rule="nonzero" clip-path="url(#clip30)"><g clip-rule="nonzero" clip-path="url(#clip31)"><g clip-rule="nonzero" clip-path="url(#clip32)"><path style=" stroke:none;fill-rule:evenodd;fill:rgb(0%,54.508972%,82.348633%);fill-opacity:1;" d="M 292.066406 255.371094 L 330.679688 215.316406 L 277.003906 207.402344 Z M 292.066406 255.371094 "/></g></g></g></g><g clip-rule="nonzero" clip-path="url(#clip33)"><g clip-rule="nonzero" clip-path="url(#clip34)"><g clip-rule="nonzero" clip-path="url(#clip35)"><g clip-rule="nonzero" clip-path="url(#clip36)"><path style=" stroke:none;fill-rule:evenodd;fill:rgb(41.569519%,73.728943%,91.758728%);fill-opacity:1;" d="M 277.003906 207.402344 L 320.578125 197.839844 L 320.878906 197.953125 L 337.597656 209.152344 L 330.679688 215.316406 Z M 277.003906 207.402344 "/></g></g></g></g><g clip-rule="nonzero" clip-path="url(#clip37)"><g clip-rule="nonzero" clip-path="url(#clip38)"><g clip-rule="nonzero" clip-path="url(#clip39)"><g clip-rule="nonzero" clip-path="url(#clip40)"><path style=" stroke:none;fill-rule:evenodd;fill:rgb(0%,27.839661%,43.919373%);fill-opacity:1;" d="M 337.597656 209.152344 L 340.195312 216.851562 L 333.519531 212.789062 Z M 337.597656 209.152344 "/></g></g></g></g><g clip-rule="nonzero" clip-path="url(#clip41)"><g clip-rule="nonzero" clip-path="url(#clip42)"><g clip-rule="nonzero" clip-path="url(#clip43)"><g clip-rule="nonzero" clip-path="url(#clip44)"><path style=" stroke:none;fill-rule:evenodd;fill:rgb(0%,39.99939%,62.748718%);fill-opacity:1;" d="M 255.015625 260.800781 L 234.988281 225.230469 L 277.003906 207.402344 L 292.066406 255.371094 L 255.171875 261.078125 Z M 255.015625 260.800781 "/></g></g></g></g><g style="fill:rgb(43.528748%,63.919067%,70.588684%);fill-opacity:1;"><g transform="translate(58.826095, 312.610967)"><path style="stroke:none;" d="M 2.375 0 L 2.375 -24.421875 L 7.484375 -24.421875 L 7.484375 -3.953125 L 20.59375 -3.953125 L 20.59375 0 Z M 2.375 0 "/></g></g><g style="fill:rgb(43.528748%,63.919067%,70.588684%);fill-opacity:1;"><g transform="translate(104.861456, 312.610967)"><path style="stroke:none;" d="M 12.53125 0.34375 C 9.164062 0.34375 6.585938 -0.472656 4.796875 -2.109375 C 3.015625 -3.753906 2.125 -6.101562 2.125 -9.15625 L 2.125 -24.421875 L 7.25 -24.421875 L 7.25 -9.546875 C 7.25 -7.617188 7.707031 -6.15625 8.625 -5.15625 C 9.539062 -4.15625 10.890625 -3.65625 12.671875 -3.65625 C 14.492188 -3.65625 15.894531 -4.175781 16.875 -5.21875 C 17.863281 -6.269531 18.359375 -7.769531 18.359375 -9.71875 L 18.359375 -24.421875 L 23.46875 -24.421875 L 23.46875 -9.40625 C 23.46875 -6.3125 22.507812 -3.910156 20.59375 -2.203125 C 18.6875 -0.503906 16 0.34375 12.53125 0.34375 Z M 12.53125 0.34375 "/></g></g><g style="fill:rgb(43.528748%,63.919067%,70.588684%);fill-opacity:1;"><g transform="translate(154.848531, 312.610967)"><path style="stroke:none;" d="M 2.375 0 L 2.375 -24.421875 L 21.578125 -24.421875 L 21.578125 -20.46875 L 7.484375 -20.46875 L 7.484375 -14.328125 L 20.53125 -14.328125 L 20.53125 -10.390625 L 7.484375 -10.390625 L 7.484375 -3.953125 L 22.296875 -3.953125 L 22.296875 0 Z M 2.375 0 "/></g></g><g style="fill:rgb(29.798889%,49.409485%,69.799805%);fill-opacity:1;"><g transform="translate(202.872964, 312.610967)"><path style="stroke:none;" d="M 24.03125 -6.96875 C 24.03125 -4.75 23.195312 -3.03125 21.53125 -1.8125 C 19.863281 -0.601562 17.550781 0 14.59375 0 L 2.375 0 L 2.375 -24.421875 L 13.5625 -24.421875 C 16.539062 -24.421875 18.796875 -23.90625 20.328125 -22.875 C 21.859375 -21.84375 22.625 -20.3125 22.625 -18.28125 C 22.625 -16.894531 22.238281 -15.722656 21.46875 -14.765625 C 20.695312 -13.816406 19.523438 -13.175781 17.953125 -12.84375 C 19.929688 -12.613281 21.4375 -11.992188 22.46875 -10.984375 C 23.507812 -9.972656 24.03125 -8.632812 24.03125 -6.96875 Z M 17.46875 -17.59375 C 17.46875 -18.6875 17.117188 -19.460938 16.421875 -19.921875 C 15.722656 -20.390625 14.6875 -20.625 13.3125 -20.625 L 7.484375 -20.625 L 7.484375 -14.578125 L 13.34375 -14.578125 C 14.789062 -14.578125 15.835938 -14.828125 16.484375 -15.328125 C 17.140625 -15.835938 17.46875 -16.59375 17.46875 -17.59375 Z M 18.890625 -7.359375 C 18.890625 -9.648438 17.25 -10.796875 13.96875 -10.796875 L 7.484375 -10.796875 L 7.484375 -3.796875 L 14.15625 -3.796875 C 15.800781 -3.796875 17 -4.09375 17.75 -4.6875 C 18.507812 -5.28125 18.890625 -6.171875 18.890625 -7.359375 Z M 18.890625 -7.359375 "/></g></g><g style="fill:rgb(29.798889%,49.409485%,69.799805%);fill-opacity:1;"><g transform="translate(252.860039, 312.610967)"><path style="stroke:none;" d="M 2.375 0 L 2.375 -24.421875 L 7.484375 -24.421875 L 7.484375 0 Z M 2.375 0 "/></g></g><g style="fill:rgb(29.798889%,49.409485%,69.799805%);fill-opacity:1;"><g transform="translate(287.074924, 312.610967)"><path style="stroke:none;" d="M 19.15625 0 L 13.484375 -9.28125 L 7.484375 -9.28125 L 7.484375 0 L 2.375 0 L 2.375 -24.421875 L 14.578125 -24.421875 C 17.492188 -24.421875 19.742188 -23.789062 21.328125 -22.53125 C 22.910156 -21.28125 23.703125 -19.484375 23.703125 -17.140625 C 23.703125 -15.429688 23.210938 -13.953125 22.234375 -12.703125 C 21.265625 -11.460938 19.957031 -10.648438 18.3125 -10.265625 L 24.90625 0 Z M 18.546875 -16.9375 C 18.546875 -19.28125 17.046875 -20.453125 14.046875 -20.453125 L 7.484375 -20.453125 L 7.484375 -13.25 L 14.171875 -13.25 C 15.609375 -13.25 16.695312 -13.570312 17.4375 -14.21875 C 18.175781 -14.863281 18.546875 -15.769531 18.546875 -16.9375 Z M 18.546875 -16.9375 "/></g></g><g style="fill:rgb(29.798889%,49.409485%,69.799805%);fill-opacity:1;"><g transform="translate(337.062004, 312.610967)"><path style="stroke:none;" d="M 24.140625 -12.390625 C 24.140625 -9.867188 23.644531 -7.671875 22.65625 -5.796875 C 21.675781 -3.921875 20.28125 -2.484375 18.46875 -1.484375 C 16.65625 -0.492188 14.582031 0 12.25 0 L 2.375 0 L 2.375 -24.421875 L 11.21875 -24.421875 C 15.332031 -24.421875 18.515625 -23.382812 20.765625 -21.3125 C 23.015625 -19.238281 24.140625 -16.265625 24.140625 -12.390625 Z M 19 -12.390625 C 19 -15.015625 18.316406 -17.015625 16.953125 -18.390625 C 15.585938 -19.773438 13.640625 -20.46875 11.109375 -20.46875 L 7.484375 -20.46875 L 7.484375 -3.953125 L 11.828125 -3.953125 C 14.015625 -3.953125 15.753906 -4.707031 17.046875 -6.21875 C 18.347656 -7.738281 19 -9.796875 19 -12.390625 Z M 19 -12.390625 "/></g></g><g style="fill:rgb(43.528748%,63.919067%,70.588684%);fill-opacity:1;"><g transform="translate(5.224139, 314.704374)"><path style="stroke:none;" d="M 39.59375 -11.484375 C 39.59375 -7.828125 38.21875 -5 35.46875 -3 C 32.726562 -1 28.921875 0 24.046875 0 L 3.90625 0 L 3.90625 -40.25 L 22.34375 -40.25 C 27.25 -40.25 30.960938 -39.394531 33.484375 -37.6875 C 36.015625 -35.988281 37.28125 -33.472656 37.28125 -30.140625 C 37.28125 -27.847656 36.644531 -25.914062 35.375 -24.34375 C 34.113281 -22.78125 32.1875 -21.722656 29.59375 -21.171875 C 32.851562 -20.785156 35.332031 -19.757812 37.03125 -18.09375 C 38.738281 -16.425781 39.59375 -14.222656 39.59375 -11.484375 Z M 28.796875 -29 C 28.796875 -30.800781 28.21875 -32.082031 27.0625 -32.84375 C 25.914062 -33.601562 24.207031 -33.984375 21.9375 -33.984375 L 12.34375 -33.984375 L 12.34375 -24.015625 L 22 -24.015625 C 24.375 -24.015625 26.097656 -24.429688 27.171875 -25.265625 C 28.253906 -26.097656 28.796875 -27.34375 28.796875 -29 Z M 31.140625 -12.140625 C 31.140625 -15.910156 28.429688 -17.796875 23.015625 -17.796875 L 12.34375 -17.796875 L 12.34375 -6.25 L 23.34375 -6.25 C 26.039062 -6.25 28.015625 -6.738281 29.265625 -7.71875 C 30.515625 -8.707031 31.140625 -10.179688 31.140625 -12.140625 Z M 31.140625 -12.140625 "/></g></g></g></svg>