<?xml version="1.0" encoding="UTF-8"?><svg xmlns="http://www.w3.org/2000/svg" xmlns:xlink="http://www.w3.org/1999/xlink" width="375pt" zoomAndPan="magnify" viewBox="0 0 375 374.999991" height="374.999991pt" preserveAspectRatio="xMidYMid meet" version="1.2"><defs><clipPath xml:id="clip1" id="clip1"><path d="M 13 34 L 208 34 L 208 134 L 13 134 Z M 13 34 "/></clipPath><clipPath xml:id="clip2" id="clip2"><path d="M 20.460938 6.136719 L 384.796875 103.988281 L 314.183594 366.921875 L -50.15625 269.070312 Z M 20.460938 6.136719 "/></clipPath><clipPath xml:id="clip3" id="clip3"><path d="M 385.058594 104.058594 L 20.71875 6.207031 L -49.894531 269.140625 L 314.441406 366.992188 Z M 385.058594 104.058594 "/></clipPath><clipPath xml:id="clip4" id="clip4"><path d="M 385.058594 104.058594 L 20.71875 6.207031 L -49.894531 269.140625 L 314.441406 366.992188 Z M 385.058594 104.058594 "/></clipPath><clipPath xml:id="clip5" id="clip5"><path d="M 71 69 L 248 69 L 248 182 L 71 182 Z M 71 69 "/></clipPath><clipPath xml:id="clip6" id="clip6"><path d="M 20.460938 6.136719 L 384.796875 103.988281 L 314.183594 366.921875 L -50.15625 269.070312 Z M 20.460938 6.136719 "/></clipPath><clipPath xml:id="clip7" id="clip7"><path d="M 385.058594 104.058594 L 20.71875 6.207031 L -49.894531 269.140625 L 314.441406 366.992188 Z M 385.058594 104.058594 "/></clipPath><clipPath xml:id="clip8" id="clip8"><path d="M 385.058594 104.058594 L 20.71875 6.207031 L -49.894531 269.140625 L 314.441406 366.992188 Z M 385.058594 104.058594 "/></clipPath><clipPath xml:id="clip9" id="clip9"><path d="M 71 37 L 268 37 L 268 87 L 71 87 Z M 71 37 "/></clipPath><clipPath xml:id="clip10" id="clip10"><path d="M 20.460938 6.136719 L 384.796875 103.988281 L 314.183594 366.921875 L -50.15625 269.070312 Z M 20.460938 6.136719 "/></clipPath><clipPath xml:id="clip11" id="clip11"><path d="M 385.058594 104.058594 L 20.71875 6.207031 L -49.894531 269.140625 L 314.441406 366.992188 Z M 385.058594 104.058594 "/></clipPath><clipPath xml:id="clip12" id="clip12"><path d="M 385.058594 104.058594 L 20.71875 6.207031 L -49.894531 269.140625 L 314.441406 366.992188 Z M 385.058594 104.058594 "/></clipPath><clipPath xml:id="clip13" id="clip13"><path d="M 215 72 L 268 72 L 268 148 L 215 148 Z M 215 72 "/></clipPath><clipPath xml:id="clip14" id="clip14"><path d="M 20.460938 6.136719 L 384.796875 103.988281 L 314.183594 366.921875 L -50.15625 269.070312 Z M 20.460938 6.136719 "/></clipPath><clipPath xml:id="clip15" id="clip15"><path d="M 385.058594 104.058594 L 20.71875 6.207031 L -49.894531 269.140625 L 314.441406 366.992188 Z M 385.058594 104.058594 "/></clipPath><clipPath xml:id="clip16" id="clip16"><path d="M 385.058594 104.058594 L 20.71875 6.207031 L -49.894531 269.140625 L 314.441406 366.992188 Z M 385.058594 104.058594 "/></clipPath><clipPath xml:id="clip17" id="clip17"><path d="M 159 181 L 206 181 L 206 259 L 159 259 Z M 159 181 "/></clipPath><clipPath xml:id="clip18" id="clip18"><path d="M 20.460938 6.136719 L 384.796875 103.988281 L 314.183594 366.921875 L -50.15625 269.070312 Z M 20.460938 6.136719 "/></clipPath><clipPath xml:id="clip19" id="clip19"><path d="M 385.058594 104.058594 L 20.71875 6.207031 L -49.894531 269.140625 L 314.441406 366.992188 Z M 385.058594 104.058594 "/></clipPath><clipPath xml:id="clip20" id="clip20"><path d="M 385.058594 104.058594 L 20.71875 6.207031 L -49.894531 269.140625 L 314.441406 366.992188 Z M 385.058594 104.058594 "/></clipPath><clipPath xml:id="clip21" id="clip21"><path d="M 98 181 L 168 181 L 168 252 L 98 252 Z M 98 181 "/></clipPath><clipPath xml:id="clip22" id="clip22"><path d="M 20.460938 6.136719 L 384.796875 103.988281 L 314.183594 366.921875 L -50.15625 269.070312 Z M 20.460938 6.136719 "/></clipPath><clipPath xml:id="clip23" id="clip23"><path d="M 385.058594 104.058594 L 20.71875 6.207031 L -49.894531 269.140625 L 314.441406 366.992188 Z M 385.058594 104.058594 "/></clipPath><clipPath xml:id="clip24" id="clip24"><path d="M 385.058594 104.058594 L 20.71875 6.207031 L -49.894531 269.140625 L 314.441406 366.992188 Z M 385.058594 104.058594 "/></clipPath><clipPath xml:id="clip25" id="clip25"><path d="M 37 245 L 161 245 L 161 304 L 37 304 Z M 37 245 "/></clipPath><clipPath xml:id="clip26" id="clip26"><path d="M 20.460938 6.136719 L 384.796875 103.988281 L 314.183594 366.921875 L -50.15625 269.070312 Z M 20.460938 6.136719 "/></clipPath><clipPath xml:id="clip27" id="clip27"><path d="M 385.058594 104.058594 L 20.71875 6.207031 L -49.894531 269.140625 L 314.441406 366.992188 Z M 385.058594 104.058594 "/></clipPath><clipPath xml:id="clip28" id="clip28"><path d="M 385.058594 104.058594 L 20.71875 6.207031 L -49.894531 269.140625 L 314.441406 366.992188 Z M 385.058594 104.058594 "/></clipPath><clipPath xml:id="clip29" id="clip29"><path d="M 247 147 L 351 147 L 351 239 L 247 239 Z M 247 147 "/></clipPath><clipPath xml:id="clip30" id="clip30"><path d="M 20.460938 6.136719 L 384.796875 103.988281 L 314.183594 366.921875 L -50.15625 269.070312 Z M 20.460938 6.136719 "/></clipPath><clipPath xml:id="clip31" id="clip31"><path d="M 385.058594 104.058594 L 20.71875 6.207031 L -49.894531 269.140625 L 314.441406 366.992188 Z M 385.058594 104.058594 "/></clipPath><clipPath xml:id="clip32" id="clip32"><path d="M 385.058594 104.058594 L 20.71875 6.207031 L -49.894531 269.140625 L 314.441406 366.992188 Z M 385.058594 104.058594 "/></clipPath><clipPath xml:id="clip33" id="clip33"><path d="M 247 129 L 364 129 L 364 163 L 247 163 Z M 247 129 "/></clipPath><clipPath xml:id="clip34" id="clip34"><path d="M 20.460938 6.136719 L 384.796875 103.988281 L 314.183594 366.921875 L -50.15625 269.070312 Z M 20.460938 6.136719 "/></clipPath><clipPath xml:id="clip35" id="clip35"><path d="M 385.058594 104.058594 L 20.71875 6.207031 L -49.894531 269.140625 L 314.441406 366.992188 Z M 385.058594 104.058594 "/></clipPath><clipPath xml:id="clip36" id="clip36"><path d="M 385.058594 104.058594 L 20.71875 6.207031 L -49.894531 269.140625 L 314.441406 366.992188 Z M 385.058594 104.058594 "/></clipPath><clipPath xml:id="clip37" id="clip37"><path d="M 355 150 L 369 150 L 369 166 L 355 166 Z M 355 150 "/></clipPath><clipPath xml:id="clip38" id="clip38"><path d="M 20.460938 6.136719 L 384.796875 103.988281 L 314.183594 366.921875 L -50.15625 269.070312 Z M 20.460938 6.136719 "/></clipPath><clipPath xml:id="clip39" id="clip39"><path d="M 385.058594 104.058594 L 20.71875 6.207031 L -49.894531 269.140625 L 314.441406 366.992188 Z M 385.058594 104.058594 "/></clipPath><clipPath xml:id="clip40" id="clip40"><path d="M 385.058594 104.058594 L 20.71875 6.207031 L -49.894531 269.140625 L 314.441406 366.992188 Z M 385.058594 104.058594 "/></clipPath><clipPath xml:id="clip41" id="clip41"><path d="M 167 147 L 277 147 L 277 250 L 167 250 Z M 167 147 "/></clipPath><clipPath xml:id="clip42" id="clip42"><path d="M 20.460938 6.136719 L 384.796875 103.988281 L 314.183594 366.921875 L -50.15625 269.070312 Z M 20.460938 6.136719 "/></clipPath><clipPath xml:id="clip43" id="clip43"><path d="M 385.058594 104.058594 L 20.71875 6.207031 L -49.894531 269.140625 L 314.441406 366.992188 Z M 385.058594 104.058594 "/></clipPath><clipPath xml:id="clip44" id="clip44"><path d="M 385.058594 104.058594 L 20.71875 6.207031 L -49.894531 269.140625 L 314.441406 366.992188 Z M 385.058594 104.058594 "/></clipPath></defs><g xml:id="surface1" id="surface1"><g clip-rule="nonzero" clip-path="url(#clip1)"><g clip-rule="nonzero" clip-path="url(#clip2)"><g clip-rule="nonzero" clip-path="url(#clip3)"><g clip-rule="nonzero" clip-path="url(#clip4)"><path style=" stroke:none;fill-rule:evenodd;fill:rgb(31.759644%,68.238831%,88.62915%);fill-opacity:1;" d="M 71.996094 133.863281 L 13.40625 34.234375 L 207.144531 70.214844 Z M 71.996094 133.863281 "/></g></g></g></g><g clip-rule="nonzero" clip-path="url(#clip5)"><g clip-rule="nonzero" clip-path="url(#clip6)"><g clip-rule="nonzero" clip-path="url(#clip7)"><g clip-rule="nonzero" clip-path="url(#clip8)"><path style=" stroke:none;fill-rule:evenodd;fill:rgb(0%,45.878601%,71.369934%);fill-opacity:1;" d="M 206.863281 69.671875 L 247.519531 147.335938 L 167.175781 181.375 L 71.996094 133.863281 L 206.578125 70.480469 Z M 206.863281 69.671875 "/></g></g></g></g><g clip-rule="nonzero" clip-path="url(#clip9)"><g clip-rule="nonzero" clip-path="url(#clip10)"><g clip-rule="nonzero" clip-path="url(#clip11)"><g clip-rule="nonzero" clip-path="url(#clip12)"><path style=" stroke:none;fill-rule:evenodd;fill:rgb(55.288696%,81.17981%,95.289612%);fill-opacity:1;" d="M 215.679688 86.515625 L 207.144531 70.214844 L 85.398438 47.617188 L 71.84375 37.863281 L 267.601562 73.042969 Z M 215.679688 86.515625 "/></g></g></g></g><g clip-rule="nonzero" clip-path="url(#clip13)"><g clip-rule="nonzero" clip-path="url(#clip14)"><g clip-rule="nonzero" clip-path="url(#clip15)"><g clip-rule="nonzero" clip-path="url(#clip16)"><path style=" stroke:none;fill-rule:evenodd;fill:rgb(33.729553%,65.489197%,69.799805%);fill-opacity:1;" d="M 267.734375 72.546875 L 247.519531 147.335938 L 231.886719 117.476562 L 215.679688 86.515625 L 267.273438 73.128906 Z M 267.734375 72.546875 "/></g></g></g></g><g clip-rule="nonzero" clip-path="url(#clip17)"><g clip-rule="nonzero" clip-path="url(#clip18)"><g clip-rule="nonzero" clip-path="url(#clip19)"><g clip-rule="nonzero" clip-path="url(#clip20)"><path style=" stroke:none;fill-rule:evenodd;fill:rgb(0%,54.508972%,82.348633%);fill-opacity:1;" d="M 167.171875 181.378906 L 205.792969 249.882812 L 205.46875 250.191406 L 159.382812 258.050781 Z M 167.171875 181.378906 "/></g></g></g></g><g clip-rule="nonzero" clip-path="url(#clip21)"><g clip-rule="nonzero" clip-path="url(#clip22)"><g clip-rule="nonzero" clip-path="url(#clip23)"><g clip-rule="nonzero" clip-path="url(#clip24)"><path style=" stroke:none;fill-rule:evenodd;fill:rgb(0%,33.329773%,52.938843%);fill-opacity:1;" d="M 160.640625 245.660156 L 98.207031 251.25 L 167.175781 181.375 Z M 160.640625 245.660156 "/></g></g></g></g><g clip-rule="nonzero" clip-path="url(#clip25)"><g clip-rule="nonzero" clip-path="url(#clip26)"><g clip-rule="nonzero" clip-path="url(#clip27)"><g clip-rule="nonzero" clip-path="url(#clip28)"><path style=" stroke:none;fill-rule:evenodd;fill:rgb(33.729553%,65.489197%,69.799805%);fill-opacity:1;" d="M 76.363281 303.125 L 37.695312 256.617188 L 64.890625 254.234375 L 160.640625 245.660156 L 159.382812 258.050781 Z M 76.363281 303.125 "/></g></g></g></g><g clip-rule="nonzero" clip-path="url(#clip29)"><g clip-rule="nonzero" clip-path="url(#clip30)"><g clip-rule="nonzero" clip-path="url(#clip31)"><g clip-rule="nonzero" clip-path="url(#clip32)"><path style=" stroke:none;fill-rule:evenodd;fill:rgb(0%,54.508972%,82.348633%);fill-opacity:1;" d="M 276.347656 238.996094 L 350.175781 162.484375 L 247.519531 147.335938 Z M 276.347656 238.996094 "/></g></g></g></g><g clip-rule="nonzero" clip-path="url(#clip33)"><g clip-rule="nonzero" clip-path="url(#clip34)"><g clip-rule="nonzero" clip-path="url(#clip35)"><g clip-rule="nonzero" clip-path="url(#clip36)"><path style=" stroke:none;fill-rule:evenodd;fill:rgb(41.569519%,73.728943%,91.758728%);fill-opacity:1;" d="M 247.519531 147.335938 L 330.84375 129.089844 L 331.425781 129.304688 L 363.402344 150.714844 L 350.175781 162.484375 Z M 247.519531 147.335938 "/></g></g></g></g><g clip-rule="nonzero" clip-path="url(#clip37)"><g clip-rule="nonzero" clip-path="url(#clip38)"><g clip-rule="nonzero" clip-path="url(#clip39)"><g clip-rule="nonzero" clip-path="url(#clip40)"><path style=" stroke:none;fill-rule:evenodd;fill:rgb(0%,27.839661%,43.919373%);fill-opacity:1;" d="M 363.402344 150.714844 L 368.371094 165.421875 L 355.601562 157.660156 Z M 363.402344 150.714844 "/></g></g></g></g><g clip-rule="nonzero" clip-path="url(#clip41)"><g clip-rule="nonzero" clip-path="url(#clip42)"><g clip-rule="nonzero" clip-path="url(#clip43)"><g clip-rule="nonzero" clip-path="url(#clip44)"><path style=" stroke:none;fill-rule:evenodd;fill:rgb(0%,39.99939%,62.748718%);fill-opacity:1;" d="M 205.492188 249.347656 L 167.171875 181.378906 L 247.519531 147.335938 L 276.347656 238.996094 L 205.792969 249.882812 Z M 205.492188 249.347656 "/></g></g></g></g></g></svg>