<?xml version="1.0" encoding="UTF-8" standalone="no"?>
<svg
   xmlns:dc="http://purl.org/dc/elements/1.1/"
   xmlns:cc="http://creativecommons.org/ns#"
   xmlns:rdf="http://www.w3.org/1999/02/22-rdf-syntax-ns#"
   xmlns:svg="http://www.w3.org/2000/svg"
   xmlns="http://www.w3.org/2000/svg"
   xmlns:sodipodi="http://sodipodi.sourceforge.net/DTD/sodipodi-0.dtd"
   xmlns:inkscape="http://www.inkscape.org/namespaces/inkscape"
   width="352.07224pt"
   zoomAndPan="magnify"
   viewBox="0 0 352.07224 40.249999"
   height="40.25pt"
   preserveAspectRatio="xMidYMid meet"
   version="1.2"
   id="svg55"
   sodipodi:docname="Text.svg"
   inkscape:version="1.0.1 (3bc2e813f5, 2020-09-07)">
  <metadata
     id="metadata59">
    <rdf:RDF>
      <cc:Work
         rdf:about="">
        <dc:format>image/svg+xml</dc:format>
        <dc:type
           rdf:resource="http://purl.org/dc/dcmitype/StillImage" />
      </cc:Work>
    </rdf:RDF>
  </metadata>
  <sodipodi:namedview
     pagecolor="#ffffff"
     bordercolor="#666666"
     borderopacity="1"
     objecttolerance="10"
     gridtolerance="10"
     guidetolerance="10"
     inkscape:pageopacity="0"
     inkscape:pageshadow="2"
     inkscape:window-width="1920"
     inkscape:window-height="1055"
     id="namedview57"
     showgrid="false"
     inkscape:zoom="1.758"
     inkscape:cx="238.39498"
     inkscape:cy="-112.00422"
     inkscape:window-x="0"
     inkscape:window-y="0"
     inkscape:window-maximized="1"
     inkscape:current-layer="svg55" />
  <defs
     id="defs4">
    <g
       id="g2" />
  </defs>
  <g
     xml:id="surface1"
     id="surface1"
     transform="translate(-9.130389,-274.45437)">
    <g
       style="fill:#6ea1b3;fill-opacity:1"
       id="g10">
      <g
         transform="translate(58.826095,312.61097)"
         id="g8">
        <path
           style="stroke:none"
           d="m 2.375,0 v -24.421875 h 5.109375 v 20.46875 H 20.59375 V 0 Z m 0,0"
           id="path6" />
      </g>
    </g>
    <g
       style="fill:#6ea1b3;fill-opacity:1"
       id="g16">
      <g
         transform="translate(104.86146,312.61097)"
         id="g14">
        <path
           style="stroke:none"
           d="m 12.53125,0.34375 c -3.367188,0 -5.945312,-0.816406 -7.734375,-2.453125 C 3.015625,-3.753906 2.125,-6.101562 2.125,-9.15625 V -24.421875 H 7.25 v 14.875 c 0,1.929687 0.457031,3.390625 1.375,4.390625 0.914062,1 2.265625,1.5 4.046875,1.5 1.820313,0 3.222656,-0.519531 4.203125,-1.5625 0.988281,-1.050781 1.484375,-2.550781 1.484375,-4.5 V -24.421875 H 23.46875 V -9.40625 c 0,3.09375 -0.960938,5.496094 -2.875,7.203125 C 18.6875,-0.503906 16,0.34375 12.53125,0.34375 Z m 0,0"
           id="path12" />
      </g>
    </g>
    <g
       style="fill:#6ea1b3;fill-opacity:1"
       id="g22">
      <g
         transform="translate(154.84853,312.61097)"
         id="g20">
        <path
           style="stroke:none"
           d="m 2.375,0 v -24.421875 h 19.203125 v 3.953125 H 7.484375 v 6.140625 H 20.53125 v 3.9375 H 7.484375 v 6.4375 h 14.8125 V 0 Z m 0,0"
           id="path18" />
      </g>
    </g>
    <g
       style="fill:#4a7db0;fill-opacity:1"
       id="g28">
      <g
         transform="translate(202.87296,312.61097)"
         id="g26">
        <path
           style="stroke:none"
           d="m 24.03125,-6.96875 c 0,2.21875 -0.835938,3.9375 -2.5,5.15625 C 19.863281,-0.601562 17.550781,0 14.59375,0 H 2.375 v -24.421875 h 11.1875 c 2.976562,0 5.234375,0.515625 6.765625,1.546875 1.53125,1.03125 2.296875,2.5625 2.296875,4.59375 0,1.386719 -0.386719,2.558594 -1.15625,3.515625 -0.773438,0.949219 -1.945312,1.589844 -3.515625,1.921875 1.976563,0.230469 3.484375,0.851562 4.515625,1.859375 1.039062,1.011719 1.5625,2.351563 1.5625,4.015625 z m -6.5625,-10.625 c 0,-1.09375 -0.351562,-1.867188 -1.046875,-2.328125 C 15.722656,-20.390625 14.6875,-20.625 13.3125,-20.625 H 7.484375 v 6.046875 h 5.859375 c 1.445312,0 2.492188,-0.25 3.140625,-0.75 0.65625,-0.507813 0.984375,-1.265625 0.984375,-2.265625 z m 1.421875,10.234375 c 0,-2.289063 -1.640625,-3.4375 -4.921875,-3.4375 H 7.484375 v 7 h 6.671875 c 1.644531,0 2.84375,-0.296875 3.59375,-0.890625 0.757812,-0.59375 1.140625,-1.484375 1.140625,-2.671875 z m 0,0"
           id="path24" />
      </g>
    </g>
    <g
       style="fill:#4a7db0;fill-opacity:1"
       id="g34">
      <g
         transform="translate(252.86004,312.61097)"
         id="g32">
        <path
           style="stroke:none"
           d="M 2.375,0 V -24.421875 H 7.484375 V 0 Z m 0,0"
           id="path30" />
      </g>
    </g>
    <g
       style="fill:#4a7db0;fill-opacity:1"
       id="g40">
      <g
         transform="translate(287.07492,312.61097)"
         id="g38">
        <path
           style="stroke:none"
           d="m 19.15625,0 -5.671875,-9.28125 h -6 V 0 H 2.375 v -24.421875 h 12.203125 c 2.914063,0 5.164063,0.632813 6.75,1.890625 1.582031,1.25 2.375,3.046875 2.375,5.390625 0,1.710937 -0.492187,3.1875 -1.46875,4.4375 -0.96875,1.242187 -2.277344,2.054687 -3.921875,2.4375 L 24.90625,0 Z m -0.609375,-16.9375 c 0,-2.34375 -1.5,-3.515625 -4.5,-3.515625 h -6.5625 V -13.25 h 6.6875 c 1.4375,0 2.523437,-0.320312 3.265625,-0.96875 0.738281,-0.644531 1.109375,-1.550781 1.109375,-2.71875 z m 0,0"
           id="path36" />
      </g>
    </g>
    <g
       style="fill:#4a7db0;fill-opacity:1"
       id="g46">
      <g
         transform="translate(337.062,312.61097)"
         id="g44">
        <path
           style="stroke:none"
           d="m 24.140625,-12.390625 c 0,2.523437 -0.496094,4.71875 -1.484375,6.59375 -0.980469,1.875 -2.375,3.3125 -4.1875,4.3125 C 16.65625,-0.492188 14.582031,0 12.25,0 H 2.375 v -24.421875 h 8.84375 c 4.113281,0 7.296875,1.039063 9.546875,3.109375 2.25,2.074219 3.375,5.046875 3.375,8.921875 z m -5.140625,0 c 0,-2.625 -0.683594,-4.625 -2.046875,-6 -1.367187,-1.382813 -3.3125,-2.078125 -5.84375,-2.078125 h -3.625 v 16.515625 h 4.34375 c 2.1875,0 3.925781,-0.753906 5.21875,-2.265625 C 18.347656,-7.738281 19,-9.796875 19,-12.390625 Z m 0,0"
           id="path42" />
      </g>
    </g>
    <g
       style="fill:#6ea1b3;fill-opacity:1"
       id="g52">
      <g
         transform="translate(5.224139,314.70437)"
         id="g50">
        <path
           style="stroke:none"
           d="m 39.59375,-11.484375 c 0,3.65625 -1.375,6.484375 -4.125,8.484375 -2.742188,2 -6.546875,3 -11.421875,3 H 3.90625 v -40.25 h 18.4375 c 4.90625,0 8.617188,0.855469 11.140625,2.5625 2.53125,1.699219 3.796875,4.214844 3.796875,7.546875 0,2.292969 -0.636719,4.226563 -1.90625,5.796875 -1.261719,1.5625 -3.1875,2.621094 -5.78125,3.171875 3.257812,0.386719 5.738281,1.414063 7.4375,3.078125 1.707031,1.667969 2.5625,3.871094 2.5625,6.609375 z M 28.796875,-29 c 0,-1.800781 -0.578125,-3.082031 -1.734375,-3.84375 -1.148438,-0.757812 -2.855469,-1.140625 -5.125,-1.140625 h -9.59375 v 9.96875 H 22 c 2.375,0 4.097656,-0.414063 5.171875,-1.25 1.082031,-0.832031 1.625,-2.078125 1.625,-3.734375 z m 2.34375,16.859375 c 0,-3.769531 -2.710937,-5.65625 -8.125,-5.65625 H 12.34375 V -6.25 h 11 c 2.695312,0 4.671875,-0.488281 5.921875,-1.46875 1.25,-0.988281 1.875,-2.460938 1.875,-4.421875 z m 0,0"
           id="path48" />
      </g>
    </g>
  </g>
</svg>
